<svg xmlns="http://www.w3.org/2000/svg" xmlns:xlink="http://www.w3.org/1999/xlink" width="180.001" height="48" viewBox="0 0 180.001 48"><defs><style>.a,.r{fill:#fff;}.a{opacity:0;}.b{fill:url(#a);}.c{fill:url(#b);}.d{fill:url(#c);}.e{fill:url(#d);}.f{fill:url(#e);}.g{fill:url(#f);}.h{fill:url(#g);}.i{fill:url(#h);}.j{fill:url(#i);}.k{fill:url(#j);}.l{fill:#32bcad;}.m{fill:url(#k);}.n{fill:url(#l);}.o{fill:url(#m);}.p{fill:url(#n);}.q{fill:#1268b3;}.s{fill:url(#o);}.t{fill:url(#p);}.u{fill:url(#q);}.v{fill:url(#r);}.w{fill:url(#s);}.x{fill:url(#t);}.y{fill:url(#u);}.z{fill:url(#v);}.aa{fill:url(#w);}.ab{fill:url(#x);}</style><linearGradient id="a" x1="-0.749" y1="0.5" x2="15.253" y2="0.5" gradientUnits="objectBoundingBox"><stop offset="0" stop-color="#1268b3"/><stop offset="1" stop-color="#32bcad"/></linearGradient><linearGradient id="b" x1="-1.266" y1="0.5" x2="8.962" y2="0.5" xlink:href="#a"/><linearGradient id="c" x1="-4.018" y1="0.5" x2="13.148" y2="0.5" xlink:href="#a"/><linearGradient id="d" x1="-8.126" y1="0.5" x2="18.354" y2="0.5" xlink:href="#a"/><linearGradient id="e" x1="-7.871" y1="0.5" x2="14.461" y2="0.5" xlink:href="#a"/><linearGradient id="f" x1="-6.663" y1="0.5" x2="9.628" y2="0.5" xlink:href="#a"/><linearGradient id="g" x1="-8.297" y1="0.5" x2="8.87" y2="0.5" xlink:href="#a"/><linearGradient id="h" x1="-9.541" y1="0.5" x2="7.615" y2="0.5" xlink:href="#a"/><linearGradient id="i" x1="-11.09" y1="0.5" x2="6.563" y2="0.5" xlink:href="#a"/><linearGradient id="j" x1="-48.718" y1="0.5" x2="21.293" y2="0.5" xlink:href="#a"/><linearGradient id="k" x1="-12.448" y1="0.5" x2="4.709" y2="0.5" xlink:href="#a"/><linearGradient id="l" x1="-13.67" y1="0.5" x2="3.493" y2="0.5" xlink:href="#a"/><linearGradient id="m" y1="0.5" x2="1" y2="0.5" gradientUnits="objectBoundingBox"><stop offset="0" stop-color="#32bcad"/><stop offset="1" stop-color="#1268b3"/></linearGradient><linearGradient id="n" x1="-135.563" y1="323.087" x2="-134.563" y2="323.087" xlink:href="#a"/><linearGradient id="o" x1="1.334" y1="0.5" x2="-0.402" y2="0.5" gradientUnits="objectBoundingBox"><stop offset="0.244" stop-color="#1268b3"/><stop offset="0.736" stop-color="#32bcad"/></linearGradient><linearGradient id="p" x1="2.175" y1="0.5" x2="-0.477" y2="0.5" xlink:href="#o"/><linearGradient id="q" x1="2.965" y1="0.5" x2="-0.91" y2="0.5" xlink:href="#o"/><linearGradient id="r" x1="1.509" y1="0.5" x2="-0.732" y2="0.5" xlink:href="#o"/><linearGradient id="s" x1="1.476" y1="0.5" x2="-1.993" y2="0.5" xlink:href="#o"/><linearGradient id="t" x1="6.002" y1="0.5" x2="-0.938" y2="0.5" xlink:href="#o"/><linearGradient id="u" x1="1.099" y1="0.5" x2="-0.529" y2="0.5" xlink:href="#o"/><linearGradient id="v" x1="1.772" y1="0.5" x2="-10.517" y2="0.5" xlink:href="#o"/><linearGradient id="w" x1="1.258" y1="0.5" x2="-0.243" y2="0.5" xlink:href="#o"/><linearGradient id="x" x1="2.058" y1="0.5" x2="-3.881" y2="0.5" xlink:href="#o"/></defs><g transform="translate(-15769 -1066)"><rect class="a" width="180" height="48" transform="translate(15769 1066)"/><g transform="translate(15769 1066.013)"><path class="b" d="M145.658,57.134v-.616a.357.357,0,0,1,.4-.406h1.521a.357.357,0,0,1,.4.406v.427a1.974,1.974,0,0,0,.439,1.437,2.015,2.015,0,0,0,1.461.439h1.639A1.992,1.992,0,0,0,153,58.358a2.1,2.1,0,0,0,.451-1.508V56.3a1.423,1.423,0,0,0-.582-1.2,3.12,3.12,0,0,0-1.437-.57q-.855-.13-1.876-.368a16.511,16.511,0,0,1-1.876-.546,2.935,2.935,0,0,1-1.437-1.164,3.8,3.8,0,0,1-.582-2.185v-1a3.413,3.413,0,0,1,3.705-3.705h2.518a3.416,3.416,0,0,1,3.729,3.705v.522a.357.357,0,0,1-.4.406h-1.521a.357.357,0,0,1-.4-.406v-.309a1.611,1.611,0,0,0-1.9-1.9h-1.495a1.948,1.948,0,0,0-1.461.463,2.268,2.268,0,0,0-.439,1.58v.736q0,1.069,1.544,1.449.688.166,1.508.285a12.646,12.646,0,0,1,1.651.356,6.9,6.9,0,0,1,1.521.63,2.9,2.9,0,0,1,1.115,1.187,4.04,4.04,0,0,1,.428,1.936v.926a3.413,3.413,0,0,1-3.705,3.705h-2.661a3.717,3.717,0,0,1-2.732-.986A3.65,3.65,0,0,1,145.658,57.134Z" transform="translate(-96.427 -30.168)"/><path class="c" d="M184.431,69.434h-1.5a.357.357,0,0,1-.4-.4V58.943a.357.357,0,0,1,.4-.406h1.5a.357.357,0,0,1,.4.406V59.8h.095a2.615,2.615,0,0,1,2.518-1.259h.784a3.1,3.1,0,0,1,2.945,1.568,2.587,2.587,0,0,1,1.164-1.164,3.63,3.63,0,0,1,1.686-.406h.76a3.482,3.482,0,0,1,2.648.962,3.791,3.791,0,0,1,.915,2.72v6.813a.357.357,0,0,1-.406.4h-1.521a.357.357,0,0,1-.4-.4V62.316a1.533,1.533,0,0,0-1.71-1.757h-.689q-1.971,0-1.971,2.067v6.406q0,.4-.427.4h-1.5a.357.357,0,0,1-.406-.4V62.316a1.533,1.533,0,0,0-1.71-1.757h-.831q-1.947,0-1.947,2.019v6.454a.357.357,0,0,1-.4.4Z" transform="translate(-120.846 -38.763)"/><path class="d" d="M239.955,69.444h-.926a3.362,3.362,0,0,1-3.682-3.682V62.231a3.348,3.348,0,0,1,3.682-3.682h5.32q.427,0,.427.406V69.042q0,.4-.427.4h-1.5a.357.357,0,0,1-.4-.4v-.857h-.095A2.353,2.353,0,0,1,239.955,69.444Zm2.494-4.038v-4.6q0-.237-.261-.237h-2.826a1.533,1.533,0,0,0-1.71,1.757v3.341a1.533,1.533,0,0,0,1.71,1.757h1.14Q242.448,67.425,242.449,65.405Z" transform="translate(-155.818 -38.773)"/><path class="e" d="M272.125,69.434h-1.5a.356.356,0,0,1-.4-.4V58.943a.357.357,0,0,1,.4-.406h1.5a.358.358,0,0,1,.406.406v.9h.095a1.861,1.861,0,0,1,.915-.95,3.186,3.186,0,0,1,1.508-.357h.879a.357.357,0,0,1,.4.406v1.234q0,.451-.4.38H274.5q-1.972,0-1.971,2.163v6.311a.357.357,0,0,1-.405.4Z" transform="translate(-178.907 -38.762)"/><path class="f" d="M293.6,55.117h-1.14a.459.459,0,0,1-.321-.083.417.417,0,0,1-.083-.3V53.5a.357.357,0,0,1,.4-.406h1.14a.21.21,0,0,0,.237-.237V50.723q0-.4.427-.4h1.5a.357.357,0,0,1,.4.4v2.137c0,.159.087.237.261.237h2.209q.428,0,.427.406v1.235c0,.254-.142.38-.427.38H296.43c-.174,0-.261.08-.261.237V60.24a1.554,1.554,0,0,0,1.781,1.734h.927q.428,0,.427.406v1.235q0,.379-.427.38h-1.284a3.833,3.833,0,0,1-2.755-.95,3.528,3.528,0,0,1-1-2.684V55.355a.21.21,0,0,0-.236-.238Z" transform="translate(-193.363 -33.322)"/><path class="g" d="M319.145,60.455V45.988a.357.357,0,0,1,.4-.406h5.629a3.747,3.747,0,0,1,2.731.95,3.577,3.577,0,0,1,.974,2.684v1.164a2.531,2.531,0,0,1-1.947,2.66,2.375,2.375,0,0,1,1.532.808,2.7,2.7,0,0,1,.606,1.852v1.521a3.578,3.578,0,0,1-.974,2.684,3.714,3.714,0,0,1-2.708.95h-5.843a.357.357,0,0,1-.4-.4Zm2.565-8.361H324.8q1.8,0,1.805-1.734V49.266a1.533,1.533,0,0,0-1.757-1.71H321.71c-.174,0-.262.08-.262.237v4.063q0,.237.261.237Zm0,6.792h3.325q1.781,0,1.781-1.71V55.7q0-1.71-1.876-1.71h-3.23q-.262,0-.262.237v4.419q0,.238.262.238Z" transform="translate(-211.295 -30.186)"/><path class="h" d="M359.348,69.444h-.926a3.362,3.362,0,0,1-3.682-3.682V62.231a3.348,3.348,0,0,1,3.682-3.682h5.32q.428,0,.428.406V69.042q0,.4-.428.4h-1.5a.356.356,0,0,1-.405-.4v-.857h-.095A2.352,2.352,0,0,1,359.348,69.444Zm2.494-4.038v-4.6q0-.237-.261-.237h-2.827a1.532,1.532,0,0,0-1.71,1.757v3.341a1.533,1.533,0,0,0,1.71,1.757h1.14Q361.841,67.425,361.842,65.405Z" transform="translate(-234.865 -38.773)"/><path class="i" d="M391.515,69.434h-1.5a.356.356,0,0,1-.406-.4V58.943a.357.357,0,0,1,.406-.406h1.5a.357.357,0,0,1,.4.406V59.8h.095a2.357,2.357,0,0,1,2.4-1.259h1.045a3.547,3.547,0,0,1,2.66.951,3.754,3.754,0,0,1,.927,2.731v6.811q0,.4-.428.4h-1.5a.357.357,0,0,1-.406-.4V62.316a1.543,1.543,0,0,0-1.734-1.757h-1.115q-1.948,0-1.948,2.019v6.454a.357.357,0,0,1-.4.4Z" transform="translate(-257.951 -38.762)"/><path class="j" d="M426.053,60.452h-1.5a.357.357,0,0,1-.4-.4V45.377a.357.357,0,0,1,.4-.406h1.5a.357.357,0,0,1,.4.406V60.05a.357.357,0,0,1-.4.4Zm4.988-10.895h1.71a.325.325,0,0,1,.3.131q.083.13-.059.344l-3.348,4.1v.095l3.61,5.748a.31.31,0,0,1,.034.333.367.367,0,0,1-.344.142H431.4a.894.894,0,0,1-.808-.4l-3.349-5.487a.659.659,0,0,1,0-.642l3.111-3.983a.732.732,0,0,1,.688-.379Z" transform="translate(-280.819 -29.781)"/><path class="k" d="M456.555,69.032V58.943q0-.406.38-.406h1.521a.357.357,0,0,1,.4.406V69.032a.457.457,0,0,1-.083.32.413.413,0,0,1-.3.083h-1.521a.357.357,0,0,1-.4-.4Z" transform="translate(-302.272 -38.763)"/><rect class="l" width="2.45" height="2.45" rx="0.607" transform="translate(153.73 16.862) rotate(-45)"/><path class="m" d="M472.673,69.434h-1.5a.357.357,0,0,1-.406-.4V58.943a.357.357,0,0,1,.406-.406h1.5a.357.357,0,0,1,.4.406V59.8h.095a2.357,2.357,0,0,1,2.4-1.259h1.045a3.547,3.547,0,0,1,2.66.951,3.753,3.753,0,0,1,.926,2.731v6.811q0,.4-.427.4h-1.5a.357.357,0,0,1-.405-.4V62.316a1.543,1.543,0,0,0-1.734-1.757h-1.115q-1.948,0-1.948,2.019v6.454a.357.357,0,0,1-.4.4Z" transform="translate(-311.684 -38.762)"/><path class="n" d="M509.364,69.556h-1.069a3.45,3.45,0,0,1-2.624-.962,3.79,3.79,0,0,1-.914-2.72V62.231a3.362,3.362,0,0,1,3.681-3.682h5.322c.285,0,.427.169.427.5V70.2c0,1.668-.329,2.568-.986,3.21a3.724,3.724,0,0,1-2.719.962h-4.467q-.405,0-.4-.38V72.754a.357.357,0,0,1,.4-.4h4.109a1.543,1.543,0,0,0,1.734-1.757v-2.32h-.095A2.374,2.374,0,0,1,509.364,69.556Zm2.494-4.038V60.806q0-.237-.261-.237H508.77q-1.687,0-1.687,1.757v3.43q0,1.757,1.687,1.757h1.14A1.743,1.743,0,0,0,511.857,65.518Z" transform="translate(-334.187 -38.773)"/><circle class="o" cx="14.989" cy="14.989" r="14.989" transform="translate(13.695 8.954)"/><path class="p" d="M.145,48.968l3.219-3.219.229-.229a.5.5,0,0,1,.7,0l3.447,3.449a.5.5,0,0,1,0,.7L4.3,53.119a.5.5,0,0,1-.7,0l-.231-.231L.145,49.672a.5.5,0,0,1,0-.7Z" transform="translate(0 -30.05)"/><path class="l" d="M.286,0H3.124A.286.286,0,0,1,3.41.286V3.124a.286.286,0,0,1-.286.286H.286A.286.286,0,0,1,0,3.124V.286A.286.286,0,0,1,.286,0Z" transform="translate(6.887 14.975) rotate(-45)"/><rect class="q" width="2.84" height="2.84" rx="0.705" transform="translate(8.972 20.729) rotate(-45)"/><path class="r" d="M55.663,61.654a12.305,12.305,0,0,1,1.816-.129,3.486,3.486,0,0,1,1.843.35,1.347,1.347,0,0,1,.737,1.225,1.41,1.41,0,0,1-1.023,1.318v.019a1.544,1.544,0,0,1,1.235,1.521,1.66,1.66,0,0,1-.645,1.327,3.923,3.923,0,0,1-2.443.562,10.838,10.838,0,0,1-1.521-.092Zm1.392,2.378h.461c.746,0,1.134-.3,1.134-.765s-.36-.719-1-.719a3.65,3.65,0,0,0-.6.036Zm0,2.755a4.4,4.4,0,0,0,.544.019c.636,0,1.2-.249,1.2-.9,0-.618-.562-.866-1.263-.866h-.479Z" transform="translate(-36.853 -40.743)"/><path class="r" d="M73.57,61.661v6.212h-1.4V61.661Z" transform="translate(-47.781 -40.833)"/><path class="r" d="M79.917,61.663a12.417,12.417,0,0,1,1.889-.138,4.048,4.048,0,0,1,2.553.663,2.749,2.749,0,0,1,1.051,2.341,3.177,3.177,0,0,1-1.023,2.516,4.488,4.488,0,0,1-2.876.8,12.008,12.008,0,0,1-1.594-.092Zm1.4,5.06a2.627,2.627,0,0,0,.488.028,1.935,1.935,0,0,0,2.12-2.175A1.8,1.8,0,0,0,81.954,62.6a2.981,2.981,0,0,0-.636.055Z" transform="translate(-52.911 -40.743)"/><path class="r" d="M99.152,67.873l-1.991-6.212H98.7l.756,2.627c.212.747.406,1.447.553,2.222h.028c.156-.747.35-1.484.562-2.194l.793-2.654h1.494l-2.092,6.212Z" transform="translate(-64.328 -40.833)"/><path class="s" d="M31.376,74.425a.859.859,0,0,0-.112-.006l-.06.005a.492.492,0,0,0-.426.531,18.353,18.353,0,0,0,31.28,11.251.477.477,0,0,0,.1-.527.49.49,0,0,0-.457-.308.478.478,0,0,0-.342.144,17.369,17.369,0,0,1-29.6-10.652A.5.5,0,0,0,31.376,74.425Z" transform="translate(-20.376 -49.28)"/><path class="t" d="M42.492,93.935a.493.493,0,0,0,.025-.985A20.488,20.488,0,0,1,23.41,74.2a.494.494,0,0,0-.492-.462.509.509,0,0,0-.372.164.485.485,0,0,0-.128.368A21.48,21.48,0,0,0,42.445,93.935Z" transform="translate(-14.842 -48.831)"/><path class="u" d="M51.383,9.175h-.007a21.5,21.5,0,0,0-11.933,6.37.45.45,0,0,0,.327.756h.005a.732.732,0,0,0,.528-.226,20.3,20.3,0,0,1,11.227-5.921.5.5,0,0,0,.338-.215.483.483,0,0,0,.073-.375.516.516,0,0,0-.559-.39Z" transform="translate(-26.036 -6.081)"/><path class="v" d="M52.623,20.483a.519.519,0,0,0,.519.519h.038l.034,0a.157.157,0,0,0,.092-.029l.254-.18a17.281,17.281,0,0,1,20.131.112.473.473,0,0,0,.284.1.482.482,0,0,0,.466-.34.5.5,0,0,0-.182-.565,18.335,18.335,0,0,0-21.4-.046.521.521,0,0,0-.233.431Z" transform="translate(-34.84 -11.018)"/><path class="w" d="M102.13,15.908a.5.5,0,0,0,.458-.3.484.484,0,0,0-.1-.532A21.416,21.416,0,0,0,89.005,8.579a.5.5,0,0,0-.482.5.49.49,0,0,0,.455.488,20.4,20.4,0,0,1,12.8,6.193A.485.485,0,0,0,102.13,15.908Z" transform="translate(-58.609 -5.689)"/><path class="x" d="M16.184,83.239a.5.5,0,0,0-.484-.4.511.511,0,0,0-.095.009.5.5,0,0,0-.39.579,23.828,23.828,0,0,0,7.018,12.779.493.493,0,0,0,.831-.372.491.491,0,0,0-.153-.344A22.835,22.835,0,0,1,16.184,83.239Z" transform="translate(-10.067 -54.854)"/><path class="y" d="M79.255,107.114a.51.51,0,0,0-.852-.029,22.982,22.982,0,0,1-31.813,6.993.507.507,0,0,0-.682.146.484.484,0,0,0-.068.372.491.491,0,0,0,.217.313,23.964,23.964,0,0,0,33.177-7.278A.5.5,0,0,0,79.255,107.114Z" transform="translate(-30.342 -70.764)"/><path class="z" d="M132.367,21.242a.492.492,0,1,0,.771-.611,24.23,24.23,0,0,0-3.057-3.241.5.5,0,0,0-.7.049.479.479,0,0,0-.122.351.493.493,0,0,0,.166.343,22.583,22.583,0,0,1,2.938,3.109Z" transform="translate(-85.581 -11.444)"/><path class="aa" d="M29.252,9.984a.494.494,0,0,0,.39-.193A22.959,22.959,0,0,1,60.571,4.9a.507.507,0,0,0,.684-.135.481.481,0,0,0,.078-.367.491.491,0,0,0-.207-.318A23.982,23.982,0,0,0,28.854,9.166.492.492,0,0,0,28.8,9.7a.5.5,0,0,0,.454.288Z" transform="translate(-19.031)"/><path class="ab" d="M99.271,117.257a.488.488,0,0,1-.124-.959,19.31,19.31,0,0,0,10.145-6.055.488.488,0,1,1,.725.654A20.225,20.225,0,0,1,99.4,117.241.466.466,0,0,1,99.271,117.257Z" transform="translate(-65.402 -72.891)"/></g></g></svg>